HIERARCHY
ROOT Hips
{
	OFFSET 0.00 0.00 0.00
	CHANNELS 6 Xposition Yposition Zposition Xrotation Yrotation Zrotation
	JOINT Spine
	{
		OFFSET 0.00000 6.11665 0.00000
		CHANNELS 3 Xrotation Yrotation Zrotation
		JOINT Head
		{
			OFFSET 0.00000 15.22556 0.00000
			CHANNELS 3 Xrotation Yrotation Zrotation
			End Site
			{
				OFFSET 0.00000 4.52755 0.00000
			}
		}
		JOINT LeftShoulder
		{
			OFFSET 0.00000 8.97765 0.00000
			CHANNELS 3 Xrotation Yrotation Zrotation
			JOINT LeftArm
			{
				OFFSET 7.11013 0.00000 0.00000
				CHANNELS 3 Xrotation Yrotation Zrotation
				JOINT LeftForeArm
				{
					OFFSET 10.39834 0.00000 0.00000
					CHANNELS 3 Yrotation Zrotation Xrotation
					JOINT LeftHand
					{
						OFFSET 8.88900 0.00000 0.00000
						CHANNELS 3 Xrotation Yrotation Zrotation
						JOINT LeftHandThumb1
						{
							OFFSET 0.00000 0.00000 0.00000
							CHANNELS 3 Xrotation Zrotation Yrotation
							End Site
							{
								OFFSET 0.00000 0.00000 3.93700
							}
						}
						End Site
						{
							OFFSET 3.93700 0.00000 0.00000
						}
					}
				}
			}
		}
		JOINT RightShoulder
		{
			OFFSET 0.00000 8.97765 0.00000
			CHANNELS 3 Xrotation Yrotation Zrotation
			JOINT RightArm
			{
				OFFSET -7.11013 0.00000 0.00000
				CHANNELS 3 Xrotation Yrotation Zrotation
				JOINT RightForeArm
				{
					OFFSET -10.39834 0.00000 0.00000
					CHANNELS 3 Yrotation Zrotation Xrotation
					JOINT RightHand
					{
						OFFSET -8.88900 0.00000 0.00000
						CHANNELS 3 Xrotation Yrotation Zrotation
						JOINT RightHandThumb1
						{
							OFFSET 0.00000 0.00000 0.00000
							CHANNELS 3 Xrotation Zrotation Yrotation
							End Site
							{
								OFFSET 0.00000 0.00000 3.93700
							}
						}
						End Site
						{
							OFFSET -3.93700 0.00000 0.00000
						}
					}
				}
			}
		}
	}
	JOINT LeftUpLeg
	{
		OFFSET 4.71176 0.00000 0.00000
		CHANNELS 3 Xrotation Yrotation Zrotation
		JOINT LeftLeg
		{
			OFFSET 0.00000 -15.51045 0.00000
			CHANNELS 3 Xrotation Yrotation Zrotation
			JOINT LeftFoot
			{
				OFFSET 0.00000 -14.85806 0.00000
				CHANNELS 3 Xrotation Yrotation Zrotation
				JOINT LeftToeBase
				{
					OFFSET 0.00000 -1.32744 4.95409
					CHANNELS 3 Xrotation Yrotation Zrotation
					End Site
					{
						OFFSET 0.00000 0.00000 2.95275
					}
				}
			}
		}
	}
	JOINT RightUpLeg
	{
		OFFSET -4.71176 0.00000 0.00000
		CHANNELS 3 Xrotation Yrotation Zrotation
		JOINT RightLeg
		{
			OFFSET 0.00000 -15.51045 0.00000
			CHANNELS 3 Xrotation Yrotation Zrotation
			JOINT RightFoot
			{
				OFFSET 0.00000 -14.85806 0.00000
				CHANNELS 3 Xrotation Yrotation Zrotation
				JOINT RightToeBase
				{
					OFFSET 0.00000 -1.32744 4.95409
					CHANNELS 3 Xrotation Yrotation Zrotation
					End Site
					{
						OFFSET 0.00000 0.00000 2.95275
					}
				}
			}
		}
	}
}
MOTION
Frames: 9
Frame Time: 0.008333
 3.7132 32.3228 1.6138 -1.7438 3.1586 0.7819 4.5305 4.7324 -1.8653 -11.6285 -6.0103 1.6210 -6.5722 15.5374 32.6549 5.0224 -27.3654 -66.0586 -105.3517 -0.0000 -16.8171 -3.3529 -9.3213 -19.8854 33.1476 -0.0000 26.2537 9.0753 -30.7907 -31.9029 -6.3775 -18.3816 73.3514 89.0142 0.0000 20.5957 -1.6857 14.5465 6.6831 32.8623 0.0000 -24.3270 4.6697 3.7789 -2.7107 4.9602 -0.0000 0.0000 -12.6478 15.2635 -11.2326 17.4724 -0.0000 0.0000 5.3579 -4.0085 5.1269 2.7885 0.0000 -0.0000 -10.6669 -21.9603 6.7513 11.5441 0.0000 0.0000
 3.7188 32.3222 1.6015 -1.6790 3.3025 0.7959 4.4896 4.5027 -1.8275 -11.6730 -5.9377 1.5265 -6.4539 15.7257 32.3597 4.3086 -28.3720 -67.4183 -106.8996 -0.0000 -18.1036 -3.4141 -9.2624 -20.3373 33.1476 -0.0000 26.2537 9.1375 -30.8391 -31.7944 -5.7743 -17.8169 74.5260 90.5356 0.0000 20.5031 -1.7568 14.5195 6.9749 32.8623 0.0000 -24.3270 4.5420 3.4511 -2.7309 4.9842 0.0000 0.0000 -12.6389 15.4361 -11.2214 17.5422 -0.0000 0.0000 5.2936 -4.2285 5.1074 2.7930 0.0000 -0.0000 -10.6675 -21.8839 6.7980 11.4782 0.0000 -0.0000
 3.7098 32.3228 1.6040 -1.7222 3.2500 0.8185 4.5558 4.5133 -1.8866 -11.6994 -5.9268 1.5385 -6.4866 15.7874 32.1333 3.6602 -29.3566 -68.7451 -108.2747 -0.0000 -19.2159 -3.6050 -9.4178 -21.0577 33.1476 -0.0000 26.2537 9.3052 -30.9162 -31.5646 -5.1860 -17.2277 75.7202 92.0579 0.0000 20.5699 -1.8234 14.4040 7.2930 32.8623 0.0000 -24.3270 4.6668 3.3008 -2.7449 4.8412 -0.0000 -0.0000 -12.5726 15.5692 -11.2235 17.4726 0.0000 -0.0000 5.3302 -4.1693 5.1018 2.8000 0.0000 -0.0000 -10.6924 -21.8968 6.7890 11.5738 -0.0000 -0.0000
 3.7016 32.3229 1.6014 -1.7205 3.2431 0.8372 4.5752 4.5160 -1.9377 -11.7113 -5.9441 1.5461 -6.5706 15.7618 31.9181 2.9482 -30.3239 -70.1482 -109.5189 -0.0000 -20.2646 -3.8162 -9.5553 -21.8916 33.1476 -0.0000 26.2537 9.4906 -30.9812 -31.3182 -4.5890 -16.6544 76.9366 93.5491 0.0000 20.6003 -1.8585 14.2401 7.5146 32.8623 0.0000 -24.3270 4.7117 3.1074 -2.7551 4.7105 -0.0000 -0.0000 -12.5097 15.8063 -11.2761 17.6121 0.0000 0.0000 5.3178 -4.1584 5.0975 2.8103 0.0000 0.0000 -10.7074 -21.9081 6.7661 11.5747 0.0000 -0.0000
 3.6946 32.3226 1.5984 -1.7076 3.2637 0.8534 4.5776 4.4703 -1.9737 -11.7184 -5.9443 1.5432 -6.7454 15.6795 31.7300 2.2944 -31.2840 -71.5617 -110.7218 -0.0000 -21.2781 -3.8993 -9.5145 -22.4090 33.1476 -0.0000 26.2537 9.5776 -30.9550 -31.1292 -3.9074 -16.0322 78.1188 94.9787 0.0000 20.7159 -1.9047 14.3242 7.6555 32.8623 0.0000 -24.3270 4.7356 2.8628 -2.7655 4.5993 -0.0000 -0.0000 -12.4636 16.0204 -11.3022 17.6573 0.0000 -0.0000 5.3000 -4.2114 5.0957 2.8211 -0.0000 -0.0000 -10.7212 -21.8755 6.7550 11.5562 0.0000 -0.0000
 3.6875 32.3222 1.5956 -1.7087 3.2951 0.8698 4.5940 4.4236 -2.0060 -11.7174 -5.9755 1.5408 -6.9050 15.5624 31.5498 1.5745 -32.1340 -72.9730 -111.8373 -0.0000 -22.2541 -3.9366 -9.4938 -22.6461 33.1476 -0.0000 26.2537 9.6190 -30.9323 -30.9999 -3.2119 -15.2837 79.3062 96.3201 0.0000 20.8657 -1.9193 14.2264 7.7650 32.8623 0.0000 -24.3270 4.7674 2.6678 -2.7737 4.5026 0.0000 0.0000 -12.4221 16.1881 -11.3225 17.6632 0.0000 -0.0000 5.3013 -4.2681 5.0966 2.8257 -0.0000 0.0000 -10.7477 -21.8491 6.7385 11.5950 0.0000 -0.0000
 3.6790 32.3210 1.5936 -1.7182 3.3306 0.8933 4.6129 4.3580 -2.0522 -11.6925 -5.9832 1.5501 -6.9860 15.4950 31.4251 0.6818 -32.9432 -74.4236 -112.8616 -0.0000 -22.7223 -3.9529 -9.3154 -23.1171 33.1476 -0.0000 26.2537 9.6021 -30.8975 -30.9170 -2.5304 -14.3807 80.4578 97.5449 0.0000 20.9522 -1.8945 14.1332 7.7148 32.8623 0.0000 -24.3270 4.8052 2.4504 -2.7849 4.4213 0.0000 -0.0000 -12.3779 16.3019 -11.2583 17.5528 0.0000 0.0000 5.3098 -4.3284 5.0947 2.8356 0.0000 -0.0000 -10.7895 -21.8284 6.6643 11.5672 -0.0000 -0.0000
 3.6704 32.3202 1.5917 -1.7300 3.3613 0.9155 4.6331 4.2949 -2.0987 -11.6682 -6.0235 1.5719 -7.1609 15.3219 31.3674 -0.1065 -33.6331 -75.8758 -113.8115 -0.0000 -23.0828 -3.9056 -9.1234 -23.2949 33.1476 -0.0000 26.2537 9.5544 -30.8626 -30.8585 -1.8894 -13.4161 81.5831 98.6687 0.0000 20.9426 -1.9647 14.0532 8.0409 32.8623 0.0000 -24.3270 4.8396 2.2732 -2.7915 4.3462 0.0000 -0.0000 -12.3424 16.4438 -11.3043 17.5389 0.0000 0.0000 5.3146 -4.3633 5.0934 2.8510 -0.0000 0.0000 -10.8066 -21.8355 6.6465 11.4129 0.0000 -0.0000
 3.6605 32.3200 1.5911 -1.7502 3.4065 0.9331 4.6555 4.1937 -2.1334 -11.6359 -6.0307 1.5661 -7.3064 15.1584 31.3307 -0.9167 -34.1728 -77.2946 -114.6313 -0.0000 -23.1703 -4.0214 -9.1100 -23.9420 33.1476 -0.0000 26.2537 9.5848 -30.9050 -30.7696 -1.4337 -12.2934 82.6513 99.6353 0.0000 20.7368 -1.8998 14.1056 7.7506 32.8623 0.0000 -24.3270 4.8799 2.1162 -2.7895 4.2628 0.0000 0.0000 -12.2987 16.6070 -11.3362 17.6730 0.0000 0.0000 5.3356 -4.4071 5.0997 2.8601 -0.0000 -0.0000 -10.8219 -21.8360 6.6507 11.4255 0.0000 -0.0000
